<?xml version="1.0" encoding="utf-8"?>
<!-- Generator: Adobe Illustrator 28.2.0, SVG Export Plug-In . SVG Version: 6.00 Build 0)  -->
<svg version="1.1" id="Layer_1" xmlns="http://www.w3.org/2000/svg" xmlns:xlink="http://www.w3.org/1999/xlink" x="0px" y="0px"
	 viewBox="0 0 2104.2 1080" style="enable-background:new 0 0 2104.2 1080;" xml:space="preserve">
<style type="text/css">
	.st0{fill:#FFFFFF;}
</style>
<g>
	<g>
		<g>
			<path class="st0" d="M518.3,566.4c46-126.8,235.8-98.4,242,36.7c9.6,7,26,18.9,37.5,27.2c10.6-73.1-33.8-147.8-102.8-173.9
				c23.6-45.9,54.3-105.6,78.8-153.3H362.6c-47.7,4.7-94.3,34.1-119.6,74.9c22.1,16,114.4,83,137.9,100l20.6-40.1L303.9,367
				c97.4-76.4,237.3,24.8,194.5,140.9c-45.9,126.8-235.8,98.5-242-36.7c-9.6-7-26.1-19-37.6-27.3c-11.2,71,35.3,149.9,102.9,174
				c-23.6,45.9-54.3,105.6-78.9,153.4c0,0,385.6,0.9,391.2,0.9c54.9,0.4,111.2-28.8,139.5-75.7c-22-16-114.4-83-137.9-100
				l-20.6,40.1l97.5,70.9C615.3,783.7,475.4,682.5,518.3,566.4z M513.2,717.2l8.5,9.6H315.9c2.4-4.7,47.2-91.9,50.6-98.5
				c37.2,3.5,74.5-6.7,105.6-26.8C470.8,643.8,484.8,685.5,513.2,717.2z M503.4,357.1l-8.5-9.6h205.8c-2.4,4.7-47.2,91.9-50.6,98.5
				c-37.2-3.5-74.5,6.7-105.6,26.8C545.8,430.6,531.9,388.9,503.4,357.1z"/>
		</g>
		<g>
			<polygon class="st0" points="1048.1,550.8 857.5,550.8 857.5,303.1 1046.6,303.1 1023.1,346.7 909.7,346.7 909.7,404.9 
				998.6,404.9 975.4,446.7 909.7,446.7 909.7,507.1 1024.6,507.1 			"/>
		</g>
		<g>
			<path class="st0" d="M1578.7,550.8h-56.4c-20.5-54.5-57.4-152.8-77.6-206.7c-5.8,15.2-34.2,89.1-40.3,104.9h61.8l-20.8,39.2
				h-55.8l-24.1,62.6h-53.8l101.6-247.7h65.2L1578.7,550.8z"/>
		</g>
		<g>
			<path class="st0" d="M1885.5,303.1v247.7h-48.5V357.1c-2.8,5.2-85,157.8-90.9,168.8c-6.3-11.7-87.8-163.9-90.9-169.6v194.5h-47
				V303.1h71.1l67.5,128.8l67.5-128.8H1885.5z"/>
		</g>
		<g>
			<path class="st0" d="M1005.9,726.7c-21.2,44-78.9,54.4-119,31.1c-78.2-45.7-40.7-159.1,46-158.2c20.4,0,40,7,56.8,20.2
				l-14.5,26.1c-33.6-36.4-100.8-12.8-98,38.9c-2.6,61.8,90.1,81.5,106.4,18.2h-61c3.6-6.5,9.7-17.6,14.3-25.9h79.6
				C1017.2,694.6,1013.4,712,1005.9,726.7z"/>
		</g>
		<g>
			<path class="st0" d="M1202.7,767.1h-34.2c-16.9-44.5-37.3-99.6-53.9-143.6c-5.8,15.1-24.1,62.9-30,78.2h41.7l-11.7,22.9h-38.7
				c0-0.1-15.8,41.1-16.3,42.5h-32.5l67.4-164.4h41.8L1202.7,767.1z"/>
		</g>
		<g>
			<path class="st0" d="M1411.7,602.7v164.4h-29.2V630.1c-6.4,11.9-55.9,103.8-63.5,117.9c-7.9-14.8-56.9-106.1-63.6-118.5v137.5
				h-28.2V602.7h45.3c3.2,6.2,44.9,85.6,47,89.6c1.9-3.6,43.9-83.8,46.9-89.6H1411.7z"/>
		</g>
		<g>
			<polygon class="st0" points="1571.9,767.1 1449.9,767.1 1449.9,602.7 1570.9,602.7 1550.4,628.6 1481.6,628.6 1481.6,671.8 
				1538.3,671.8 1518.1,696.5 1481.6,696.5 1481.6,741.1 1551.4,741.1 			"/>
		</g>
		<g>
			<path class="st0" d="M1725.9,744.8c-27.5,35.4-93.4,29.4-128.2,4.9c3.4-6.4,9.5-17.6,13.3-24.8c21.2,16.5,61.2,30,86.1,10.8
				c7.3-7.2,7.2-17.1,5-21.2c-18.5-34.9-115.6,0.7-105.5-74.9c13.2-52.8,90.5-44.9,126.5-22.1L1710,642c-30.2-21-75.9-27.1-85.5,3
				c-0.3,19.8,25.7,22.2,42,24.7c32,4.6,66.1,9.9,67.5,45.9C1734.5,726.5,1731.5,737.4,1725.9,744.8z"/>
		</g>
	</g>
	<path class="st0" d="M1293.2,550.8h-57.9c-10.5-20-40.5-76.7-59.5-112.3c-4.8-9-8.8-16.6-11.7-22h21.3c1.2,0,2.3,0,3.5,0
		c10.1-0.1,20.2-1.3,29.8-5.7c16.2-6.7,20.9-28.4,14.5-44.1c-2.7-6.7-7.5-12.4-14.2-15.3c-11.1-5.1-28.2-6.6-42.8-6.7
		c-2,0-4,0-5.9,0h-20.9v22h0v184.2h-52.2V324h0v-22h89v0.1c22.4,0.5,43.9,3,62,11c59.1,26.7,50.7,118.7-10.1,136.9L1293.2,550.8z"/>
</g>
</svg>
